<svg xmlns="http://www.w3.org/2000/svg" viewBox="0 0 90 19" style="background:#323330"><text font-family="Verdana,sans-serif" font-weight="700" font-size="8.6" fill="#fff" transform="translate(22 13)">JAVASCRIPT</text><path fill="#F7DF1E" d="M3 2.5h14v14H3z"/><path fill="#323330" d="M15.5 13.07c-.1-.6-.52-1.1-1.73-1.57-.42-.2-.88-.33-1.02-.63-.06-.18-.06-.28-.03-.39.09-.35.52-.46.87-.36.22.07.43.23.55.5l1-.62a2.2 2.2 0 00-.33-.43c-.36-.39-.84-.59-1.62-.57l-.4.05c-.39.1-.75.29-.98.55-.65.71-.46 1.95.33 2.46.78.56 1.92.68 2.06 1.2.14.65-.5.86-1.12.78-.46-.1-.72-.32-1-.73l-1.05.57c.12.27.26.38.46.61 1 .97 3.48.92 3.93-.55.02-.05.14-.38.04-.9l.03.03zM10.36 9.1H9.07v3.18c0 .68.03 1.3-.08 1.49-.2.38-.68.33-.9.26-.22-.1-.34-.25-.47-.47l-.08-.1-1.04.61c.17.35.43.65.76.84a2.6 2.6 0 001.83.22 1.6 1.6 0 001.04-.78c.29-.5.23-1.13.22-1.83V9.1z"/></svg>
