<svg xmlns="http://www.w3.org/2000/svg" viewBox="0 0 112 25" style="background:#323330"><text font-family="Verdana,sans-serif" font-weight="700" font-size="11" fill="#fff" transform="translate(29 17)">JAVASCRIPT</text><path fill="#f7df1e" d="M4.5 3.25H23v18.5H4.5V3.25zm16.985 14.088c-.135-.844-.685-1.553-2.315-2.215-.568-.266-1.198-.451-1.385-.879-.071-.254-.081-.393-.036-.543.116-.498.705-.648 1.168-.509.301.093.578.324.752.694.797-.521.797-.521 1.353-.867-.208-.324-.311-.464-.452-.601-.485-.544-1.132-.821-2.184-.798l-.544.069c-.521.127-1.017.405-1.318.775-.879.995-.625 2.729.439 3.446 1.052.786 2.591.959 2.787 1.7.185.902-.67 1.191-1.515 1.087-.625-.139-.972-.452-1.353-1.03l-1.411.81c.162.37.347.531.625.855 1.341 1.353 4.694 1.284 5.296-.774.022-.069.185-.543.057-1.272l.036.052zm-6.925-5.585h-1.733c0 1.494-.007 2.979-.007 4.475 0 .949.049 1.821-.106 2.089-.254.532-.91.464-1.207.37-.305-.151-.46-.359-.64-.659-.048-.081-.085-.151-.098-.151l-1.407.868c.236.485.579.903 1.021 1.169.659.393 1.545.52 2.472.312.604-.174 1.124-.533 1.396-1.088.393-.716.31-1.595.306-2.579.009-1.583 0-3.167 0-4.763l.003-.043z"/></svg>