<svg xmlns="http://www.w3.org/2000/svg" viewBox="0 0 75 20" fill="#fff"><defs><linearGradient x1="0%" x2="0%" y1="0%" y2="100%" id="g"><stop offset="5%" stop-color="#4098f7"/><stop offset="95%" stop-color="#0050B2"/></linearGradient></defs><rect width="75" height="20" rx="3" fill="url(#g)"/><path d="M16 15h-1.5v-3.25c0-.77-.01-1.77-1.08-1.77-1.08 0-1.24.84-1.24 1.71v3.31h-2.08V8.25h2v.91h.02c.28-.52.96-1.08 1.97-1.08 2.1 0 2.49 1.38 2.49 3.18v3.67zM8.1 7.33a1.2 1.2 0 01-1.2-1.2 1.2 1.2 0 111.2 1.2zm1.04 7.6H7.07V8.25h2.08v6.68zM17.96 3H6.04A1.02 1.02 0 005 4v12a1.02 1.02 0 001.03 1h11.93c.57 0 1.04-.45 1.04-1V4c0-.55-.47-1-1.04-1z"/><text style="transform:translate(26px,14px);paint-order:stroke;stroke:#1d3c6a;stroke-width:1px;user-select:none;font:10px/10px Verdana, sans-serif;">LinkedIn</text></svg>
